# xmcd
#
# Track frame offsets:
#	150
#	25839
#	50850
#	70979
#	74165
#	130358
#	179500
#	198634
#	221859
#	240681
#	253178
#	272244
#	305405
#	338613
#
# Disc length: 4704 seconds
#
# Revision: 1
# Processed by: cddbd v1.5.1PL0 Copyright (c) Steve Scherf et al.
# Submitted via: audiograbber 1.83.01
#
DISCID=ed125e0e
DTITLE=Fleetwood Mac - 1974 - Record Plant, Sausalito, Ca
DYEAR=1900
DGENRE=
TTITLE0=Green Manaleshi
TTITLE1=Angel
TTITLE2=Spare Me A Little
TTITLE3=Sentimental Lady (false start)
TTITLE4=Sentimental Lady - Future Games - Bob's Rap
TTITLE5=Bermuda Triangle
TTITLE6=Why
TTITLE7=Believe Me
TTITLE8=Black Magic Woman
TTITLE9=Oh Well
TTITLE10=Pre-Shake Blues and Band Intros
TTITLE11=Rattlesnake Shake
TTITLE12=Hypnotized
TTITLE13=Mystery To Me
EXTD=
EXTT0=
EXTT1=
EXTT2=
EXTT3=
EXTT4=
EXTT5=
EXTT6=
EXTT7=
EXTT8=
EXTT9=
EXTT10=
EXTT11=
EXTT12=
EXTT13=
PLAYORDER=
